<?xml version="1.0"?><svg width="238" height="240" xmlns="http://www.w3.org/2000/svg">
 <title>ED frame</title>

 <g>
  <title>Layer 1</title>
  <g id="svg_7">
   <g id="svg_5" transform="rotate(90, 182.654, 150.479) matrix(0.0362126, 0, 0, 0.035677, 285.921, 20.5161)" fill="#eb615b" stroke="#000000" stroke-width="35.277779" stroke-miterlimit="4">
    <polygon stroke-linecap="round" stroke-linejoin="round" stroke-width="5" fill="#004896" id="svg_6" points="-391.69059923663735,2115.771244058844 -391.69059923663735,2454.771244058844 -4971.6908738948405,2454.771244058844 -4971.6908738948405,4829.771488199469 -5311.6908738948405,5169.771488199469 -5311.6908738948405,2454.771244058844 -5311.6908738948405,2115.771244058844 -4971.6908738948405,2115.771244058844 -391.69059923663735,2115.771244058844 "/>
   </g>
   <g transform="matrix(-0.035677, 0, 0, 0.035677, 264.782, 20.5161)" fill="#eb615b" stroke="#000000" stroke-width="35.277779" stroke-miterlimit="4" id="g1420">
    <polygon stroke-linecap="round" stroke-linejoin="round" stroke-width="5" fill="#c0345b" points="7410.719515066594,-547.0085410974061 7410.719515066594,-208.00854109740612 2830.719759207219,-208.00854109740612 2830.719759207219,2166.991458902594 2490.719759207219,2506.991458902594 2490.719759207219,-208.00854109740612 2490.719759207219,-547.0085410974061 2830.719759207219,-547.0085410974061 7410.719515066594,-547.0085410974061 " id="polygon1422"/>
   </g>
   <g transform="matrix(-0.035677, 0, 0, 0.035677, 264.782, 20.5161)" fill="#eb6187" stroke="#000000" stroke-width="35.277779" stroke-miterlimit="4" id="g1428">
    <path stroke-linecap="round" stroke-linejoin="round" stroke-width="5" fill="#ffdd00" id="path1430" d="m1778.719604,3937.962158l0,-3156l-679,0l-338.999939,0l0,-338.999939l0,-679.000031l0,-338.999969l338.999939,0l679,0l338.999878,0l0,338.999969l0,679.000031l3156.000244,0l-340,338.999939l-2816.000244,0l0,2816l-338.999878,340zm0,-3494.999939l0,-679.000031l-679,0l0,679.000031l679,0z"/>
   </g>
  </g>
 </g>
</svg>